<svg width="75" height="60" viewBox="0 0 75 60" fill="none" xmlns="http://www.w3.org/2000/svg">
<path fill-rule="evenodd" clip-rule="evenodd" d="M37.0588 7.35298C34.0132 7.35298 31.5441 9.822 31.5441 12.8677C31.5441 15.9134 34.0132 18.3824 37.0588 18.3824C40.1045 18.3824 42.5736 15.9134 42.5736 12.8677C42.5736 9.822 40.1045 7.35298 37.0588 7.35298ZM27.8677 12.8677C27.8677 7.79154 31.9827 3.67651 37.0588 3.67651C42.135 3.67651 46.25 7.79154 46.25 12.8677C46.25 17.9438 42.135 22.0589 37.0588 22.0589C31.9827 22.0589 27.8677 17.9438 27.8677 12.8677Z" fill="black"/>
<path fill-rule="evenodd" clip-rule="evenodd" d="M37.0586 36.7647C31.6747 36.7647 28.4826 35.1358 26.6457 33.0345C26.086 32.3942 25.9402 31.8315 25.9571 31.3697C25.9751 30.8771 26.1881 30.3069 26.6675 29.7227C27.6522 28.5228 29.5243 27.5735 31.5439 27.5735H42.5733C44.593 27.5735 46.4651 28.5228 47.4498 29.7227C47.9291 30.3069 48.1421 30.8771 48.1602 31.3697C48.1771 31.8315 48.0312 32.3942 47.4715 33.0345C45.6347 35.1358 42.4425 36.7647 37.0586 36.7647ZM23.8777 35.4541C26.5846 38.5508 30.9065 40.4412 37.0586 40.4412C43.2107 40.4412 47.5326 38.5508 50.2395 35.4541C51.3502 34.1835 51.8888 32.7272 51.8342 31.2352C51.7806 29.7741 51.166 28.4559 50.2918 27.3905C48.5692 25.2914 45.6298 23.8971 42.5733 23.8971H31.5439C28.4874 23.8971 25.548 25.2914 23.8254 27.3905C22.9512 28.4559 22.3366 29.7741 22.2831 31.2352C22.2284 32.7272 22.767 34.1835 23.8777 35.4541Z" fill="black"/>
<circle cx="51.6173" cy="28.6764" r="11.0294" fill="#F0F0F0"/>
<path fill-rule="evenodd" clip-rule="evenodd" d="M52.0588 23.2356C49.0132 23.2356 46.5441 25.7046 46.5441 28.7503C46.5441 31.7959 49.0132 34.265 52.0588 34.265C55.1045 34.265 57.5736 31.7959 57.5736 28.7503C57.5736 25.7046 55.1045 23.2356 52.0588 23.2356ZM42.8677 28.7503C42.8677 23.6741 46.9827 19.5591 52.0588 19.5591C57.135 19.5591 61.25 23.6741 61.25 28.7503C61.25 33.8264 57.135 37.9414 52.0588 37.9414C46.9827 37.9414 42.8677 33.8264 42.8677 28.7503Z" fill="black"/>
<path fill-rule="evenodd" clip-rule="evenodd" d="M52.0586 52.6473C46.6747 52.6473 43.4826 51.0184 41.6457 48.9171C41.086 48.2768 40.9402 47.7141 40.9571 47.2523C40.9751 46.7597 41.1881 46.1895 41.6675 45.6053C42.6522 44.4054 44.5243 43.4561 46.5439 43.4561H57.5733C59.593 43.4561 61.4651 44.4054 62.4498 45.6053C62.9291 46.1895 63.1421 46.7597 63.1602 47.2523C63.1771 47.7141 63.0312 48.2768 62.4715 48.9171C60.6347 51.0184 57.4425 52.6473 52.0586 52.6473ZM38.8777 51.3367C41.5846 54.4334 45.9065 56.3237 52.0586 56.3237C58.2107 56.3237 62.5326 54.4334 65.2395 51.3367C66.3502 50.0661 66.8888 48.6097 66.8342 47.1177C66.7806 45.6567 66.166 44.3384 65.2918 43.2731C63.5692 41.174 60.6298 39.7796 57.5733 39.7796H46.5439C43.4874 39.7796 40.548 41.174 38.8254 43.2731C37.9512 44.3384 37.3366 45.6567 37.2831 47.1177C37.2284 48.6097 37.767 50.0661 38.8777 51.3367Z" fill="black"/>
<circle cx="22.5001" cy="28.6764" r="11.0294" fill="#F0F0F0"/>
<path fill-rule="evenodd" clip-rule="evenodd" d="M22.0588 23.2356C19.0132 23.2356 16.5441 25.7046 16.5441 28.7503C16.5441 31.7959 19.0132 34.265 22.0588 34.265C25.1045 34.265 27.5736 31.7959 27.5736 28.7503C27.5736 25.7046 25.1045 23.2356 22.0588 23.2356ZM12.8677 28.7503C12.8677 23.6741 16.9827 19.5591 22.0588 19.5591C27.135 19.5591 31.25 23.6741 31.25 28.7503C31.25 33.8264 27.135 37.9414 22.0588 37.9414C16.9827 37.9414 12.8677 33.8264 12.8677 28.7503Z" fill="black"/>
<path fill-rule="evenodd" clip-rule="evenodd" d="M22.0586 52.6473C16.6747 52.6473 13.4826 51.0184 11.6457 48.9171C11.086 48.2768 10.9402 47.7141 10.9571 47.2523C10.9751 46.7597 11.1881 46.1895 11.6675 45.6053C12.6522 44.4054 14.5243 43.4561 16.5439 43.4561H27.5733C29.593 43.4561 31.4651 44.4054 32.4498 45.6053C32.9291 46.1895 33.1421 46.7597 33.1602 47.2523C33.1771 47.7141 33.0312 48.2768 32.4715 48.9171C30.6347 51.0184 27.4425 52.6473 22.0586 52.6473ZM8.87771 51.3367C11.5846 54.4334 15.9065 56.3237 22.0586 56.3237C28.2107 56.3237 32.5326 54.4334 35.2395 51.3367C36.3502 50.0661 36.8888 48.6097 36.8342 47.1177C36.7806 45.6567 36.166 44.3384 35.2918 43.2731C33.5692 41.174 30.6298 39.7796 27.5733 39.7796H16.5439C13.4874 39.7796 10.548 41.174 8.82544 43.2731C7.95119 44.3384 7.33659 45.6567 7.28308 47.1177C7.22842 48.6097 7.767 50.0661 8.87771 51.3367Z" fill="black"/>
</svg>
