<svg width="83" height="76" viewBox="0 0 83 76" fill="none" xmlns="http://www.w3.org/2000/svg">
<path fill-rule="evenodd" clip-rule="evenodd" d="M32.583 18.3334C32.583 13.2708 36.6871 9.16675 41.7497 9.16675H69.2497C74.3123 9.16675 78.4163 13.2708 78.4163 18.3334V36.6667C78.4163 41.7294 74.3123 45.8334 69.2497 45.8334H41.7497C36.6871 45.8334 32.583 41.7294 32.583 36.6667V18.3334ZM41.7497 13.7501C39.2184 13.7501 37.1663 15.8021 37.1663 18.3334V36.6667C37.1663 39.1981 39.2184 41.2501 41.7497 41.2501H69.2497C71.781 41.2501 73.833 39.1981 73.833 36.6667V18.3334C73.833 15.8021 71.781 13.7501 69.2497 13.7501H41.7497Z" fill="#123666"/>
<path fill-rule="evenodd" clip-rule="evenodd" d="M76.125 25.2083H34.875V20.625H76.125V25.2083Z" fill="#123666"/>
<path fill-rule="evenodd" clip-rule="evenodd" d="M57.792 34.3749C57.792 33.1093 58.818 32.0833 60.0837 32.0833L66.9587 32.0833C68.2243 32.0833 69.2503 33.1093 69.2503 34.3749C69.2503 35.6406 68.2243 36.6666 66.9587 36.6666L60.0837 36.6666C58.818 36.6666 57.792 35.6406 57.792 34.3749Z" fill="#123666"/>
<rect x="28" y="33" width="18" height="9" fill="#F5F5F5"/>
<path fill-rule="evenodd" clip-rule="evenodd" d="M4.58301 39.3334C4.58301 34.2708 8.68706 30.1667 13.7497 30.1667H41.2497C46.3123 30.1667 50.4163 34.2708 50.4163 39.3334V57.6667C50.4163 62.7294 46.3123 66.8334 41.2497 66.8334H13.7497C8.68707 66.8334 4.58301 62.7294 4.58301 57.6667V39.3334ZM13.7497 34.7501C11.2184 34.7501 9.16634 36.8021 9.16634 39.3334V57.6667C9.16634 60.1981 11.2184 62.2501 13.7497 62.2501H41.2497C43.781 62.2501 45.833 60.1981 45.833 57.6667V39.3334C45.833 36.8021 43.781 34.7501 41.2497 34.7501H13.7497Z" fill="#123666"/>
<path fill-rule="evenodd" clip-rule="evenodd" d="M48.125 46.2083H6.875V41.625H48.125V46.2083Z" fill="#123666"/>
<path fill-rule="evenodd" clip-rule="evenodd" d="M29.792 55.3749C29.792 54.1093 30.818 53.0833 32.0837 53.0833L38.9587 53.0833C40.2243 53.0833 41.2503 54.1093 41.2503 55.3749C41.2503 56.6406 40.2243 57.6666 38.9587 57.6666L32.0837 57.6666C30.818 57.6666 29.792 56.6406 29.792 55.3749Z" fill="#123666"/>
</svg>
