<svg width="1440" height="827" viewBox="0 0 1440 827" fill="none" xmlns="http://www.w3.org/2000/svg">
<path d="M1339.73 35.2872L1339.51 35.321C1315.88 39.09 1290.04 46.3012 1268.62 55.1132C1251.58 62.1176 1229.74 73.2638 1222.38 86.5837C1215.36 101.535 1230.48 113.714 1245.1 125.492C1261.27 138.511 1276.53 150.81 1264.34 166.46C1184.52 228.209 1034.48 237.864 921.168 220.049L920.963 220.036C850.287 220.853 795.856 224.101 754.569 229.961C716.366 235.39 690.12 242.973 674.345 253.151C657.552 263.987 652.71 277.556 659.101 295.852C664.786 312.142 678.729 330.306 693.487 349.535C714.405 376.799 736.043 404.988 739.985 433.78C744.478 466.62 724.152 494.165 677.848 517.988C595.216 567.263 481.719 566.032 381.569 564.948C375.492 564.88 369.462 564.815 363.489 564.762L363.379 564.766C317.473 567.716 266.356 575.088 215.531 586.085C166.727 596.646 118.179 610.519 75.1469 626.208L74.9629 626.274L74.8569 626.368C52.4802 646.619 35.6543 669.472 27.498 690.71C18.3492 714.513 20.2054 735.584 32.8653 751.648L34.2395 751.265C4.79373 713.897 38.3137 660.822 75.9921 626.673C165.186 594.179 272.512 571.302 363.161 565.472C369.116 565.527 375.128 565.591 381.186 565.657C481.706 566.747 595.646 567.98 678.811 518.379C725.45 494.386 745.939 466.635 741.413 433.566C737.457 404.686 715.794 376.454 694.843 349.155C665.04 310.321 639.306 276.784 675.411 253.484C690.916 243.48 716.844 235.992 754.633 230.638C795.775 224.795 850.041 221.558 920.533 220.744C979.974 230.079 1044.65 231.316 1102.68 224.215C1135.41 220.213 1165.44 213.622 1191.93 204.635C1221.01 194.768 1245.78 182.002 1265.57 166.687L1265.65 166.606C1278.15 150.614 1262 137.607 1246.39 125.027C1231.89 113.347 1216.89 101.272 1223.78 86.5938C1231.01 73.5191 1252.57 62.5273 1269.39 55.6115C1290.55 46.9061 1316.06 39.7786 1339.41 36.0347C1374.27 41.4254 1403.63 52.5804 1432.02 63.3708C1449.57 70.0332 1467.7 76.927 1486.9 82.3625L1487.83 81.7271C1468.69 76.3089 1450.57 69.4293 1433.07 62.7741C1404.55 51.9379 1375.05 40.73 1339.93 35.3222L1339.73 35.2915L1339.73 35.2872Z" fill="#D9D9D9"/>
<path d="M1357.94 80.0501C1327 84.6735 1293.53 94.9671 1272.08 106.681C1261.63 112.391 1254.43 118.098 1250.69 123.647C1241.23 137.68 1254.16 150.156 1266.66 162.216C1280.75 175.8 1294.06 188.634 1276.63 203.044C1205.26 262.053 1069.91 255.592 946.941 241.491C860.101 231.532 798.877 229.486 759.198 235.416C744.692 237.584 733.078 240.813 724.126 245.116C685.572 263.641 700.901 300.098 718.66 342.311C730.849 371.286 744.669 404.131 742.269 435.403C739.525 471.232 715.88 499.49 670.003 521.789C590.191 560.582 500.772 558.14 414.292 555.78C399.197 555.369 383.583 554.94 368.449 554.759C316.691 554.138 258.059 563.936 212.749 572.542C169.882 580.684 126.978 591.602 88.6688 604.108L88.4926 604.165L88.3762 604.251C69.0904 618.8 52.7951 635.195 41.2574 651.663C28.8975 669.304 22.4386 686.576 22.5614 701.608C22.6246 709.446 24.5833 716.806 28.3886 723.484L29.798 723.153C26.0287 716.53 24.0872 709.223 24.0225 701.438C23.7854 672.355 48.8439 635.263 89.4281 604.616C127.57 592.17 170.289 581.305 212.968 573.2C258.124 564.621 316.567 554.855 368.066 555.472C383.181 555.652 398.777 556.079 413.872 556.49C500.704 558.862 590.494 561.314 670.892 522.235C717.13 499.76 740.95 471.313 743.716 435.264C746.123 403.914 732.288 371.032 720.085 342.021C702.413 300.023 687.158 263.75 725.006 245.567C740.945 237.906 765.373 233.794 799.669 232.993C836.8 232.127 884.768 235.136 946.316 242.193C1000.45 248.398 1063.91 254.275 1124.18 250.793C1156.38 248.933 1185.02 244.445 1209.33 237.45C1237.01 229.484 1260.06 217.994 1277.84 203.295C1295.71 188.52 1282.25 175.538 1268 161.793C1255.6 149.842 1242.79 137.478 1252.06 123.723C1255.71 118.294 1262.77 112.699 1273.04 107.089C1296.44 94.3076 1334.31 83.2356 1367.36 79.5096C1383.04 82.5273 1398.27 87.0482 1413.93 93.3278C1426.52 98.3481 1438.62 104.007 1450.33 109.478C1465.67 116.647 1481.52 124.059 1498.6 130.1L1499.62 129.49C1482.59 123.476 1466.76 116.074 1451.45 108.913C1439.74 103.434 1427.62 97.77 1415 92.7368C1399.19 86.4015 1383.81 81.846 1367.96 78.8062L1367.78 78.7728L1367.57 78.7954C1364.4 79.1496 1361.17 79.5753 1357.92 80.0613L1357.94 80.0501Z" fill="#D9D9D9"/>
<path d="M1373.36 124.611C1347.91 128.415 1321.23 135.921 1302.06 145C1291.31 150.094 1283.56 155.375 1279.02 160.694C1267.62 174.042 1277.48 186.821 1287.01 199.183C1297.75 213.109 1307.89 226.263 1288.94 239.619C1211.31 294.327 1085.59 282.108 972.845 262.939C887.562 248.44 828.195 244.113 790.006 249.821C779.51 251.389 770.614 253.716 763.217 256.798C723.683 273.281 731.449 309.672 740.434 351.816C746.604 380.741 753.599 413.522 745.67 444.062C736.585 479.048 709.293 505.705 662.23 525.558C580.636 559.973 497.524 553.765 417.148 547.757C402.785 546.683 387.937 545.575 373.499 544.737C323.294 541.838 264.704 549.567 224.998 555.631C180.544 562.421 139.235 571.292 102.235 581.989L102.076 582.034L101.957 582.108C58.1717 609.499 27.7031 644.56 22.4345 673.628C21.0586 681.227 21.5666 688.519 23.9567 695.305L25.393 695.03C23.0208 688.302 22.5203 681.061 23.8871 673.523C29.1267 644.632 59.396 609.782 102.9 582.545C139.742 571.903 180.854 563.078 225.119 556.316C264.688 550.268 323.07 542.566 373.006 545.454C387.425 546.286 402.264 547.396 416.617 548.466C497.339 554.501 580.797 560.739 663.024 526.057C710.47 506.043 737.984 479.197 747.118 443.988C755.063 413.368 748.061 380.545 741.887 351.586C732.944 309.665 725.225 273.465 764.002 257.298C780.336 250.489 803.975 247.521 836.271 248.228C871.244 248.992 915.674 254.028 972.107 263.623C1021.74 272.064 1080.19 280.58 1137.34 279.791C1167.88 279.366 1195.55 276.218 1219.62 270.421C1247.03 263.817 1270.74 253.557 1290.08 239.927C1309.54 226.216 1299.27 212.902 1288.4 198.806C1278.97 186.56 1269.21 173.896 1280.36 160.825C1284.8 155.625 1292.41 150.449 1302.96 145.448C1327.53 133.804 1364.63 124.776 1395.35 122.961C1410.26 126.469 1424.09 131.477 1437.58 138.265C1448.3 143.647 1458.49 149.609 1468.35 155.373C1481.59 163.111 1495.28 171.113 1510.36 177.811L1511.46 177.236C1496.43 170.561 1482.76 162.573 1469.55 154.849C1459.67 149.078 1449.47 143.109 1438.73 137.714C1425.09 130.86 1411.13 125.808 1396.05 122.273L1395.9 122.236L1395.71 122.247C1388.53 122.664 1381.01 123.472 1373.38 124.613L1373.36 124.611Z" fill="#D9D9D9"/>
<path d="M1388.71 168.489C1368.68 171.481 1348.29 176.717 1332.06 183.322C1321.02 187.816 1312.7 192.667 1307.36 197.747C1294.02 210.406 1300.8 223.499 1307.37 236.157C1314.75 250.423 1321.73 263.896 1301.25 276.207C1217.36 326.615 1101.25 308.639 998.731 284.406C899.858 261.031 837.437 255.974 802.307 268.497C761.793 282.934 761.987 319.266 762.198 361.335C762.349 390.206 762.512 422.933 749.061 452.736C733.646 486.881 702.698 511.94 654.447 529.346C571.043 559.434 494.138 549.467 419.775 539.824C406.224 538.068 392.212 536.251 378.532 534.739C335.811 530.018 285.378 533.874 237.257 538.743C196.186 542.9 154.174 550.215 115.784 559.893L115.633 559.933L115.513 559.994C68.9224 583.941 33.2061 616.761 22.2873 645.65C19.5011 653.02 18.5681 660.247 19.5044 667.129L20.9496 666.913C20.0228 660.094 20.9459 652.925 23.7132 645.614C34.5579 616.909 70.0374 584.297 116.324 560.477C154.536 550.847 196.333 543.577 237.204 539.442C285.171 534.591 335.421 530.745 377.907 535.437C391.568 536.947 405.571 538.761 419.112 540.518C493.805 550.203 571.04 560.216 655.118 529.884C703.772 512.331 734.97 487.093 750.482 452.727C763.975 422.84 763.806 390.074 763.651 361.166C763.437 319.325 763.253 283.187 802.96 269.039C819.679 263.078 842.539 261.259 872.844 263.472C905.66 265.87 946.552 272.932 997.869 285.062C1043 295.733 1096.43 306.895 1150.47 308.799C1179.34 309.815 1206.06 308.001 1229.88 303.401C1257.02 298.162 1281.38 289.135 1302.29 276.57C1323.33 263.925 1316.26 250.284 1308.79 235.837C1302.3 223.297 1295.57 210.33 1308.63 197.942C1313.85 192.983 1322 188.231 1332.82 183.824C1358.56 173.348 1394.9 166.363 1423.29 166.424C1437.32 170.409 1450.07 176.056 1461.19 183.213C1470.13 188.968 1478.5 195.253 1486.6 201.333C1497.65 209.622 1509.07 218.193 1522.07 225.53L1523.26 224.999C1510.31 217.684 1498.91 209.128 1487.87 200.854C1479.76 194.768 1471.38 188.476 1462.42 182.706C1451.19 175.475 1438.29 169.771 1424.09 165.752L1423.97 165.714L1423.8 165.713C1412.92 165.677 1400.88 166.669 1388.72 168.487L1388.71 168.489Z" fill="#D9D9D9"/>
<path d="M855.31 277.141C850.343 277.884 845.711 278.9 841.397 280.187C799.913 292.577 792.526 328.846 783.971 370.839C778.103 399.66 771.442 432.324 752.461 461.399C730.715 494.704 696.112 518.163 646.674 533.127C561.411 558.931 490.611 545.207 422.151 531.936C409.494 529.481 396.399 526.945 383.566 524.736C344.774 518.069 296.209 519.409 249.498 521.849C209.539 523.936 167.978 529.449 129.315 537.791L129.19 537.818L129.077 537.865C79.7886 558.405 38.8152 588.98 22.1403 617.663C17.9749 624.825 15.5912 631.983 15.0518 638.94L16.4987 638.797C17.0372 631.897 19.402 624.797 23.5215 617.698C40.0855 589.2 80.7745 558.823 129.73 538.402C168.197 530.111 209.533 524.632 249.289 522.554C295.836 520.125 344.226 518.789 382.799 525.412C395.622 527.613 408.698 530.152 421.346 532.604C490.12 545.936 561.234 559.721 647.185 533.707C697.048 518.619 731.921 494.985 753.819 461.46C772.852 432.308 779.516 399.6 785.398 370.743C793.903 328.981 801.255 292.907 841.9 280.773C859.023 275.658 881.103 274.987 909.407 278.708C940.067 282.741 977.43 291.828 1023.62 306.493C1064.26 319.394 1112.67 333.201 1163.58 337.798C1190.78 340.255 1216.54 339.777 1240.11 336.374C1266.97 332.503 1291.99 324.706 1314.47 313.211C1337.09 301.638 1333.23 287.665 1329.13 272.876C1325.58 260.044 1321.91 246.772 1336.87 235.057C1342.88 230.352 1351.56 226.025 1362.67 222.194C1389.57 212.921 1425.13 207.977 1451.21 209.88C1464.54 214.41 1475.84 220.556 1484.78 228.159C1491.98 234.282 1498.57 240.889 1504.95 247.282C1513.77 256.125 1522.88 265.264 1533.75 273.252L1535.02 272.769C1524.19 264.81 1515.09 255.681 1506.28 246.859C1499.9 240.458 1493.3 233.843 1486.08 227.706C1477.03 220.023 1465.61 213.806 1452.11 209.237L1452.01 209.2L1451.88 209.19C1425.43 207.238 1389.31 212.247 1362.03 221.65C1350.7 225.558 1341.83 229.983 1335.68 234.8C1320.39 246.77 1324.1 260.17 1327.69 273.136C1331.72 287.738 1335.54 301.537 1313.53 312.794C1223.39 358.91 1116.89 335.173 1024.59 305.873C946.244 281.002 891.747 271.696 855.292 277.144L855.31 277.141Z" fill="#D9D9D9"/>
<path d="M889.137 290.198C886.156 290.643 883.276 291.203 880.496 291.882C838.049 302.218 823.081 338.424 805.753 380.348C793.855 409.116 780.38 441.723 755.87 470.063C727.792 502.526 689.534 524.391 638.908 536.908C551.701 558.47 486.922 540.976 424.27 524.058C412.588 520.905 400.512 517.642 388.599 514.735C351.692 505.727 303.773 504.964 261.747 504.956C224.827 504.948 182.141 505.773 142.764 515.706C118.177 521.91 93.5935 532.521 71.6769 546.397C51.4812 559.183 34.3078 574.15 22.0103 589.675C16.4784 596.652 12.653 603.742 10.6161 610.749L12.0556 610.681C14.0736 603.732 17.8711 596.703 23.3474 589.786C44.0429 563.661 86.3876 530.645 143.161 516.325C182.2 506.476 224.666 505.659 261.401 505.668C303.279 505.676 351.031 506.434 387.718 515.389C399.611 518.29 411.678 521.55 423.35 524.7C486.282 541.698 551.358 559.268 639.287 537.529C690.349 524.904 728.917 502.881 757.182 470.195C781.764 441.776 795.261 409.126 807.17 380.318C824.404 338.628 839.283 302.625 880.875 292.499C898.392 288.236 919.691 288.704 946.005 293.931C974.508 299.594 1008.33 310.712 1049.42 327.91C1085.56 343.041 1128.94 359.494 1176.73 366.786C1202.27 370.682 1227.05 371.541 1250.39 369.34C1276.98 366.834 1302.64 360.269 1326.67 349.845C1350.88 339.344 1350.21 325.049 1349.51 309.909C1348.89 296.78 1348.27 283.199 1365.13 272.167C1371.91 267.731 1381.14 263.823 1392.54 260.556C1419.77 252.753 1457.12 247.486 1479.18 253.322C1494 257.237 1501.75 265.233 1508.42 273.089C1513.92 279.574 1518.76 286.508 1523.45 293.214C1530.01 302.607 1536.79 312.319 1545.5 320.953L1546.83 320.525C1538.15 311.921 1531.38 302.224 1524.83 292.848C1520.15 286.133 1515.3 279.192 1509.78 272.687C1503.04 264.747 1495.2 256.665 1480.09 252.672C1457.59 246.726 1419.65 252.045 1392.05 259.96C1380.41 263.297 1370.99 267.291 1364.05 271.833C1346.8 283.116 1347.44 296.828 1348.06 310.091C1348.75 325.034 1349.41 339.149 1325.87 349.361C1229.48 391.185 1132.57 361.693 1050.5 327.325C977.322 296.679 925.618 284.737 889.145 290.188L889.137 290.198Z" fill="#D9D9D9"/>
<path d="M923.399 302.938C922.116 303.129 920.855 303.344 919.607 303.582C876.198 311.865 853.648 348.009 827.546 389.859C809.629 418.576 789.331 451.125 759.29 478.732C724.882 510.355 682.969 530.625 631.147 540.701C541.897 558.053 483.041 536.756 426.128 516.162C415.507 512.319 404.535 508.348 393.635 504.745C360.248 493.705 314.379 490.352 274.009 488.076C238.63 486.082 199.603 489.644 161.861 493.092L156.514 493.581C131.433 495.861 105.637 504.232 79.8386 518.455C53.3147 533.076 33.6978 550.044 21.9031 561.704C15.0084 568.523 9.73236 575.544 6.20316 582.576L7.60764 582.582C11.0992 575.607 16.3377 568.643 23.1677 561.886C37.6564 547.553 90.1024 500.321 156.425 494.285L161.773 493.796C199.415 490.359 238.332 486.804 273.505 488.786C313.745 491.055 359.446 494.398 392.639 505.369C403.519 508.966 414.491 512.933 425.093 516.774C482.269 537.459 541.389 558.854 631.374 541.357C683.636 531.199 725.887 510.779 760.532 478.944C790.653 451.259 810.982 418.668 828.92 389.912C854.882 348.299 877.296 312.357 919.826 304.244C937.737 300.825 958.266 302.44 982.589 309.177C1008.94 316.475 1039.23 329.618 1075.19 349.356C1106.83 366.718 1145.2 385.816 1189.87 395.8C1213.74 401.132 1237.55 403.332 1260.64 402.329C1286.95 401.185 1313.26 395.862 1338.86 386.504C1364.63 377.079 1367.17 362.457 1369.85 346.979C1372.17 333.554 1374.59 319.666 1393.37 309.305C1400.9 305.155 1410.66 301.671 1422.39 298.943C1455.15 291.332 1489.21 290.468 1507.13 296.797C1521.49 301.863 1527.98 310.816 1532.04 318.049C1535.88 324.903 1539.01 332.174 1542.02 339.204C1546.29 349.137 1550.7 359.41 1557.22 368.687L1558.61 368.32C1552.11 359.074 1547.71 348.821 1543.45 338.905C1540.43 331.863 1537.3 324.587 1533.45 317.713C1529.34 310.397 1522.76 301.341 1508.15 296.183C1493.56 291.03 1468.53 290.54 1442.11 294.489C1435.46 295.482 1428.72 296.758 1422.04 298.314C1410.07 301.095 1400.08 304.659 1392.38 308.909C1373.17 319.502 1370.74 333.526 1368.39 347.09C1365.74 362.372 1363.24 376.809 1338.17 385.972C1235.5 423.511 1148.2 388.258 1076.35 348.824C1009.35 312.05 960.56 297.397 923.373 302.95L923.399 302.938Z" fill="#D9D9D9"/>
<path d="M960.367 316.745C916.009 323.375 886.111 359.779 851.518 401.905C827.447 431.21 800.175 464.43 764.338 491.125C723.349 521.664 677.257 539.119 623.448 544.48C528.539 553.938 474.454 529.217 422.144 505.315C414.492 501.814 406.573 498.198 398.662 494.753C368.535 481.619 324.841 475.705 286.251 471.191C248.939 466.827 206.567 468.891 170.028 471.486C143.968 473.335 116.516 480.636 88.4355 493.18C64.3282 503.952 41.2698 517.973 21.7744 533.715C13.4931 540.4 6.76627 547.353 1.77777 554.383L3.13815 554.464C8.08906 547.492 14.7602 540.599 22.9665 533.968C56.6756 506.749 112.976 476.227 169.892 472.184C206.295 469.601 248.511 467.543 285.616 471.882C324.074 476.381 367.607 482.272 397.566 495.327C405.467 498.769 413.377 502.386 421.028 505.879C447.222 517.848 474.309 530.227 506.287 538.198C542.227 547.161 580.538 549.438 623.403 545.169C677.722 539.757 724.2 522.167 765.496 491.401C801.432 464.626 828.753 431.365 852.855 402.016C887.432 359.91 917.308 323.539 961.136 317.317C979.248 314.744 998.741 317.403 1020.73 325.438C1044.57 334.155 1070.82 348.981 1100.99 370.759C1128.13 390.352 1161.47 412.095 1203.02 424.77C1225.21 431.544 1248.06 435.075 1270.9 435.27C1296.92 435.493 1323.9 431.402 1351.05 423.114C1378.39 414.772 1384.12 399.823 1390.19 384C1395.45 370.273 1400.9 356.074 1421.61 346.391C1429.86 342.539 1440.16 339.471 1452.25 337.281C1485.04 331.332 1518.32 332.513 1535.1 340.221C1545.78 345.121 1552.51 352.561 1555.69 362.96C1557.89 370.201 1559.32 377.822 1560.7 385.191C1562.65 395.651 1564.67 406.468 1568.97 416.374L1570.39 416.075C1566.1 406.207 1564.09 395.406 1562.14 384.962C1560.76 377.585 1559.34 369.954 1557.12 362.698C1553.91 352.176 1547.07 344.638 1536.22 339.653C1527.58 335.69 1514.88 333.342 1499.46 332.862C1484.54 332.399 1468.14 333.701 1452.05 336.62C1439.72 338.855 1429.19 341.991 1420.74 345.939C1399.56 355.838 1394.07 370.173 1388.75 384.041C1382.76 399.664 1377.1 414.42 1350.5 422.539C1241.57 455.787 1163.87 414.776 1102.24 370.275C1072 348.447 1045.68 333.584 1021.75 324.833C999.446 316.68 979.589 314.002 961.044 316.636C960.818 316.669 960.583 316.704 960.357 316.738L960.367 316.745Z" fill="#D9D9D9"/>
<path d="M992.405 327.643C949.456 334.062 913.054 368.844 871.148 408.873C841.193 437.486 807.239 469.922 766.139 496.066C719.061 526.017 669.818 543.096 615.614 548.284C521.952 557.249 474.848 528.205 429.29 500.116C420.97 494.985 412.365 489.68 403.688 484.761C377.921 470.155 337.908 461.495 298.503 454.31C259.858 447.262 221.159 445.608 183.495 449.39C155.11 452.238 125.051 459.022 96.5859 468.995C68.5243 478.826 42.6186 491.529 21.674 505.73C11.9725 512.304 3.80467 519.192 -2.62823 526.196L-1.32224 526.346C5.05437 519.398 13.1575 512.571 22.7834 506.048C65.3182 477.208 126.882 455.766 183.451 450.083C220.333 446.379 259.85 448.074 297.745 454.98C337.017 462.141 376.886 470.768 402.512 485.291C411.178 490.202 419.773 495.504 428.093 500.632C473.853 528.841 521.17 558.009 615.578 548.975C670.239 543.746 719.842 526.548 767.233 496.403C808.442 470.187 842.437 437.715 872.433 409.065C915.841 367.599 953.335 331.781 997.768 327.687C1016.48 325.962 1035.46 329.866 1055.81 339.618C1077.86 350.183 1101.08 367.379 1126.81 392.189C1149.45 414.013 1177.78 438.396 1216.2 453.765C1236.72 461.976 1258.6 466.847 1281.19 468.24C1306.94 469.826 1334.55 466.973 1363.27 459.755C1392.17 452.492 1401.1 437.221 1410.55 421.059C1418.75 407.028 1427.23 392.517 1449.9 383.51C1458.83 379.961 1469.69 377.31 1482.15 375.647C1515.46 371.194 1547.24 374.344 1563.11 383.674C1572.97 389.468 1578.59 397.848 1579.37 407.896C1579.96 415.535 1579.7 423.525 1579.43 431.252C1579.06 442.224 1578.67 453.568 1580.75 464.082L1582.2 463.849C1580.12 453.369 1580.51 442.046 1580.87 431.092C1581.14 423.356 1581.4 415.358 1580.81 407.698C1580.02 397.518 1574.32 389.026 1564.31 383.141C1548.16 373.65 1515.89 370.436 1482.09 374.956C1469.37 376.659 1458.3 379.358 1449.15 382.995C1426 392.196 1417.43 406.848 1409.15 421.017C1399.82 436.979 1391 452.057 1362.87 459.132C1247.65 488.096 1179.55 441.325 1128.13 391.75C1078.54 343.939 1037.13 323.358 997.828 326.983C996.016 327.151 994.211 327.369 992.422 327.636L992.405 327.643Z" fill="#D9D9D9"/>
<path d="M160.243 431.102C110.33 438.561 60.4445 455.167 21.5653 477.759C10.4099 484.244 0.781707 491.061 -7.03425 498.017L-5.80135 498.234C1.95769 491.329 11.5019 484.568 22.5726 478.135C70.738 450.146 135.891 431.405 196.873 428.001C236.078 425.815 275.142 429.3 309.846 438.085C347.064 447.505 384.641 458.528 407.429 475.258C414.939 480.77 422.313 486.677 429.446 492.388C469.483 524.439 510.883 557.578 607.642 552.785C663.493 550.019 716.781 534.433 770.54 505.132C817.289 479.655 858.117 447.237 894.141 418.64C946.277 377.241 991.306 341.489 1036.69 339.406C1055.81 338.527 1074.03 343.576 1092.39 354.839C1112.28 367.034 1131.97 386.26 1152.59 413.608C1164.43 429.315 1182.99 452.356 1207.36 471.069C1234.24 491.719 1263.71 503.681 1294.95 506.631C1320.32 509.026 1347.44 505.562 1375.6 496.335C1402.48 487.526 1415.24 472.61 1427.56 458.187C1439.68 444.023 1452.2 429.376 1478.1 420.61C1487.7 417.362 1499.09 415.137 1511.98 413.993C1545.89 410.984 1576.19 416.011 1591.05 427.114C1600.14 433.897 1604.27 442.789 1603 452.824C1601.97 460.88 1600 469.259 1598.1 477.364C1595.41 488.825 1592.63 500.674 1592.48 511.785L1593.93 511.62C1594.08 500.548 1596.86 488.716 1599.55 477.273C1601.46 469.163 1603.43 460.771 1604.44 452.698C1605.74 442.53 1601.55 433.514 1592.33 426.63C1577.23 415.351 1546.47 410.241 1512.07 413.293C1498.95 414.456 1487.31 416.73 1477.49 420.053C1451.1 428.982 1438.47 443.758 1426.25 458.051C1414.03 472.343 1401.4 487.119 1375.01 495.766C1347.25 504.867 1320.52 508.283 1295.54 505.926C1264.6 503.005 1235.36 491.115 1208.64 470.589C1184.33 451.915 1165.79 428.908 1153.97 413.225C1114.23 360.531 1077.04 336.848 1036.9 338.689C1033.54 338.842 1030.17 339.177 1026.81 339.679C983.995 346.078 941.541 379.784 892.947 418.374C856.973 446.937 816.195 479.313 769.565 504.725C716.147 533.837 663.242 549.327 607.84 552.07C511.823 556.824 470.6 523.823 430.732 491.911C423.589 486.197 416.205 480.287 408.685 474.764C385.772 457.936 348.059 446.873 310.726 437.423C275.811 428.587 236.504 425.082 197.043 427.281C184.881 427.959 172.552 429.245 160.231 431.086L160.243 431.102Z" fill="#D9D9D9"/>
<path d="M150.353 410.221C137.68 412.115 125.029 414.524 112.6 417.426C79.6115 425.123 48.0961 436.312 21.4566 449.789C8.79315 456.192 -2.26768 462.938 -11.4396 469.842L-10.2804 470.122C-1.18349 463.272 9.80173 456.576 22.3709 450.222C75.436 423.382 145.689 406.818 210.305 405.919C251.357 405.347 289.969 410.626 321.974 421.187C355.446 432.233 392.369 446.103 412.375 465.23C418.732 471.307 424.897 477.771 430.864 484.027C465.138 519.965 500.574 557.128 599.744 556.603C656.794 556.299 713.748 542.323 773.877 513.87C826.166 489.127 873.826 456.771 915.879 428.223C976.751 386.896 1029.32 351.205 1075.67 351.131C1095.2 351.101 1112.64 357.294 1129.02 370.07C1146.75 383.9 1162.91 405.151 1178.42 435.037C1187.33 452.196 1201.59 477.434 1222.58 498.365C1245.73 521.458 1273.2 535.491 1304.21 540.075C1329.4 543.795 1357.53 541.408 1387.81 532.976C1416.72 524.926 1432.54 509.761 1447.83 495.095C1462.86 480.677 1478.41 465.767 1506.36 457.727C1516.59 454.783 1528.54 452.98 1541.87 452.36C1575.96 450.779 1605.54 457.761 1619.07 470.575C1627.21 478.293 1629.84 487.697 1626.68 497.778C1624.03 506.323 1620.33 515.164 1616.75 523.71C1611.77 535.589 1606.62 547.875 1604.27 559.51L1605.71 559.41C1608.06 547.811 1613.2 535.549 1618.17 523.688C1621.75 515.132 1625.46 506.281 1628.11 497.72C1631.32 487.502 1628.65 477.966 1620.39 470.145C1606.66 457.141 1576.65 450.054 1542.07 451.657C1528.5 452.287 1516.31 454.129 1505.86 457.138C1477.4 465.327 1461.73 480.364 1446.56 494.906C1431.4 509.447 1415.72 524.48 1387.34 532.383C1357.46 540.702 1329.73 543.059 1304.92 539.391C1274.18 534.852 1246.92 520.905 1223.91 497.942C1202.96 477.056 1188.73 451.858 1179.83 434.722C1149.96 377.144 1116.97 350.358 1076.01 350.425C1028.79 350.501 975.953 386.372 914.77 427.91C872.768 456.424 825.166 488.741 773.006 513.422C713.249 541.698 656.679 555.591 600.081 555.892C501.64 556.412 466.347 519.4 432.215 483.609C426.247 477.353 420.072 470.882 413.714 464.797C393.601 445.574 356.56 431.652 322.981 420.571C290.782 409.948 251.934 404.635 210.624 405.211C191.069 405.483 170.695 407.19 150.363 410.228L150.353 410.221Z" fill="#D9D9D9"/>
<path d="M139.01 388.51C96.9642 394.794 56.3335 406.222 21.34 421.82C7.13301 428.152 -5.37853 434.83 -15.8444 441.664L-14.7609 441.994C-4.37058 435.21 8.05569 428.579 22.1671 422.288C119.737 378.8 253.842 371.055 334.111 404.276C369.802 419.047 398.574 436.648 417.329 455.184C418.898 457.833 420.462 460.513 422.038 463.217C448.189 508.069 477.828 558.905 591.881 560.394C648.838 563.924 705.366 553.335 764.616 528.022C816.357 505.916 861.955 476.502 906.045 448.059C968.765 407.6 1022.93 372.658 1075.68 372.052C1098.32 371.792 1119.26 377.888 1139.66 390.678C1161.87 404.602 1182.99 426.115 1204.22 456.452C1203.78 489.107 1219.63 518.341 1248.87 538.778C1265.35 550.307 1285.82 558.83 1309.69 564.106C1335.89 569.898 1366.19 571.757 1399.75 569.628L1399.84 569.625L1399.93 569.611C1432.69 563.812 1451.97 547.555 1470.62 531.832C1487.93 517.233 1505.83 502.139 1534.62 494.807C1545.95 492.164 1558.45 490.779 1571.75 490.696C1599.14 490.521 1622.43 495.794 1637.33 505.536C1652.47 515.433 1657.1 528.63 1650.35 542.709C1646.06 551.65 1640.66 560.853 1635.42 569.754C1628.14 582.146 1620.6 594.962 1616.03 607.212L1617.46 607.172C1622.01 594.958 1629.54 582.162 1636.8 569.789C1642.04 560.879 1647.46 551.67 1651.75 542.707C1658.58 528.439 1653.9 515.059 1638.56 505.029C1623.44 495.155 1599.82 489.814 1572.07 489.988C1558.55 490.074 1545.81 491.485 1534.24 494.186C1504.91 501.655 1486.86 516.874 1469.4 531.595C1450.11 547.868 1431.88 563.239 1399.83 568.931C1264.48 577.479 1204.8 518.495 1205.68 456.231L1205.67 456.18L1205.64 456.132C1184.36 425.716 1163.18 404.135 1140.89 390.163C1120.27 377.232 1099.04 371.072 1075.99 371.34C1051.46 371.617 1025.27 379.067 993.581 394.775C965.365 408.76 936.03 427.685 904.97 447.723C860.938 476.127 815.408 505.501 763.823 527.541C704.991 552.675 648.895 563.191 592.329 559.688C479.027 558.213 449.499 507.567 423.447 462.881C421.869 460.169 420.294 457.478 418.724 454.82L418.69 454.774C399.878 436.168 371.004 418.505 335.196 403.686C296.208 387.552 242.948 380.465 185.243 383.737C169.787 384.614 154.31 386.219 139.019 388.504L139.01 388.51Z" fill="#D9D9D9"/>
</svg>
