<svg width="56" height="56" viewBox="0 0 56 56" fill="none" xmlns="http://www.w3.org/2000/svg">
<path fill-rule="evenodd" clip-rule="evenodd" d="M7.14062 28C7.14062 27.2735 8.17828 26.6846 9.4583 26.6846H46.5411C47.8211 26.6846 48.8587 27.2735 48.8587 28C48.8587 28.7265 47.8211 29.3154 46.5411 29.3154H9.4583C8.17828 29.3154 7.14062 28.7265 7.14062 28Z" fill="#858585"/>
<path fill-rule="evenodd" clip-rule="evenodd" d="M28 7.14087C28.7265 7.14087 29.3154 8.17853 29.3154 9.45854L29.3154 46.5413C29.3154 47.8213 28.7265 48.859 28 48.859C27.2735 48.859 26.6846 47.8213 26.6846 46.5413L26.6846 9.45854C26.6846 8.17853 27.2735 7.14087 28 7.14087Z" fill="#858585"/>
</svg>
