<svg width="68" height="68" viewBox="0 0 68 68" fill="none" xmlns="http://www.w3.org/2000/svg">
<path fill-rule="evenodd" clip-rule="evenodd" d="M34.0002 11.3334C29.3057 11.3334 25.5002 15.139 25.5002 19.8334C25.5002 24.5278 29.3057 28.3334 34.0002 28.3334C38.6946 28.3334 42.5002 24.5278 42.5002 19.8334C42.5002 15.139 38.6946 11.3334 34.0002 11.3334ZM19.8335 19.8334C19.8335 12.0094 26.1761 5.66675 34.0002 5.66675C41.8242 5.66675 48.1668 12.0094 48.1668 19.8334C48.1668 27.6574 41.8242 34.0001 34.0002 34.0001C26.1761 34.0001 19.8335 27.6574 19.8335 19.8334Z" fill="black"/>
<path fill-rule="evenodd" clip-rule="evenodd" d="M34.0001 56.6666C25.7017 56.6666 20.7815 54.156 17.9503 50.9171C17.0877 49.9303 16.8628 49.0629 16.8889 48.3512C16.9167 47.5918 17.245 46.713 17.9839 45.8126C19.5016 43.9631 22.3872 42.4999 25.5001 42.4999H42.5001C45.613 42.4999 48.4986 43.9631 50.0163 45.8126C50.7552 46.713 51.0835 47.5918 51.1113 48.3512C51.1373 49.0629 50.9125 49.9303 50.0498 50.9171C47.2187 54.156 42.2985 56.6666 34.0001 56.6666ZM13.6839 54.6466C17.8562 59.4196 24.5177 62.3333 34.0001 62.3333C43.4825 62.3333 50.144 59.4196 54.3163 54.6466C56.0282 52.6881 56.8584 50.4434 56.7741 48.1437C56.6916 45.8917 55.7443 43.8599 54.3968 42.2178C51.7418 38.9824 47.2112 36.8333 42.5001 36.8333H25.5001C20.789 36.8333 16.2584 38.9824 13.6033 42.2178C12.2558 43.8599 11.3085 45.8917 11.226 48.1437C11.1418 50.4434 11.9719 52.6881 13.6839 54.6466Z" fill="black"/>
</svg>
