<svg width="1440" height="816" viewBox="0 0 1440 816" fill="none" xmlns="http://www.w3.org/2000/svg">
<path d="M-237.325 815.028H-237.009C-203.866 814.713 -166.992 810.262 -135.847 802.807C-111.079 796.882 -78.8721 786.41 -66.0576 770.174C-53.3823 751.701 -71.5983 732.517 -89.2197 713.963C-108.701 693.455 -127.094 674.081 -107.195 655.706C14.8008 589.511 222.311 606.475 373.895 652.649L374.173 652.706C471.161 665.656 546.39 672.148 604.149 672.561C657.595 672.934 695.102 668.071 718.796 657.679C744.02 646.616 753.431 629.548 748.422 603.969C743.969 581.195 728.587 554.291 712.306 525.81C689.233 485.429 665.362 443.677 665.856 404.638C666.425 360.11 699.909 327.546 768.219 305.087C891.506 256.023 1046.73 280.197 1183.71 301.526C1192.02 302.822 1200.27 304.107 1208.44 305.363L1208.59 305.38C1272.08 310.576 1343.61 310.931 1415.49 306.412C1484.51 302.071 1553.86 293.279 1616.02 280.977L1616.28 280.925L1616.45 280.822C1651.25 258.357 1678.98 231.333 1694.5 204.734C1711.91 174.922 1713.68 146.556 1699.62 122.698L1697.66 122.933C1730.35 178.432 1673.56 242.299 1614.96 280.191C1486.12 305.655 1334.41 314.74 1209.03 304.485C1200.89 303.229 1192.66 301.95 1184.38 300.66C1046.9 279.25 891.063 254.985 766.979 304.376C698.176 326.996 664.426 359.801 663.857 404.638C663.364 443.798 687.259 485.613 710.371 526.045C743.248 583.563 771.635 633.235 717.404 657.025C694.116 667.239 657.064 672.039 604.2 671.649C546.643 671.242 471.641 664.767 374.907 651.852C295.389 627.644 207.042 613.157 126.095 611.069C80.4415 609.888 37.9501 612.681 -0.17688 619.362C-42.0355 626.697 -78.5812 638.741 -108.827 655.161L-108.954 655.253C-129.358 674.018 -109.89 694.51 -91.0793 714.325C-73.6097 732.723 -55.5331 751.747 -67.9806 769.881C-80.5547 785.819 -112.344 796.142 -136.796 801.992C-167.573 809.356 -203.98 813.761 -236.731 814.099C-283.384 800.014 -321.321 779.361 -358.006 759.386C-380.675 747.049 -404.102 734.289 -429.288 723.254L-430.692 723.914C-405.582 734.914 -382.18 747.652 -359.562 759.971C-322.713 780.032 -284.598 800.782 -237.591 814.942L-237.325 815.022V815.028Z" fill="#D9D9D9"/>
<path d="M-253.099 751.936C-209.773 751.936 -161.817 744.905 -130.028 733.601C-114.544 728.089 -103.513 721.935 -97.2517 715.305C-81.4266 698.536 -96.5813 679.392 -111.243 660.885C-127.763 640.037 -143.361 620.343 -116.53 604.657C-6.6781 540.423 177.404 575.884 342.979 619.041C459.903 649.517 543.354 664.395 598.926 664.395C619.241 664.395 635.813 662.41 648.956 658.47C705.565 641.511 692.029 590.027 676.343 530.41C665.578 489.49 653.371 443.104 663.061 402.029C674.155 354.966 712.332 322.115 779.744 301.595C897.022 265.899 1019.02 286.901 1137 307.209C1157.6 310.754 1178.9 314.424 1199.6 317.67C1270.37 328.773 1352.7 327.397 1416.53 324.96C1476.92 322.654 1537.93 316.667 1592.97 307.657L1593.22 307.616L1593.4 307.525C1622.8 292.023 1648.48 273.475 1667.66 253.884C1688.2 232.899 1700.58 211.232 1703.49 191.233C1705.01 180.807 1703.84 170.638 1699.99 161.009L1697.99 161.169C1701.8 170.718 1702.96 180.812 1701.46 191.17C1695.83 229.859 1653.91 274.169 1592.04 306.831C1537.24 315.795 1476.49 321.748 1416.37 324.042C1352.75 326.474 1270.69 327.844 1200.27 316.798C1179.6 313.558 1158.32 309.893 1137.72 306.349C1019.26 285.955 896.756 264.867 778.618 300.826C710.675 321.507 672.219 354.576 661.05 401.925C651.334 443.104 663.554 489.541 674.332 530.513C689.942 589.826 703.414 641.052 647.843 657.696C624.441 664.71 590.134 665.324 542.988 659.577C491.945 653.354 426.848 639.831 343.979 618.232C271.09 599.237 185.361 578.826 102.086 571.485C57.5964 567.562 17.4327 567.837 -17.2914 572.305C-56.8478 577.392 -90.775 588.083 -118.137 604.084C-145.65 620.165 -129.863 640.089 -113.153 661.183C-98.6179 679.524 -83.6024 698.496 -99.1113 714.933C-105.234 721.419 -116.049 727.452 -131.267 732.866C-165.941 745.203 -220.083 752.395 -266.116 750.783C-286.976 743.66 -306.925 734.627 -327.089 723.174C-343.306 714.004 -358.726 704.082 -373.64 694.487C-393.185 681.915 -413.386 668.919 -435.549 657.501L-437.067 658.109C-414.968 669.482 -394.804 682.46 -375.298 695.014C-360.371 704.621 -344.925 714.554 -328.67 723.748C-308.316 735.304 -288.177 744.411 -267.09 751.597L-266.85 751.678L-266.559 751.689C-262.131 751.85 -257.628 751.924 -253.074 751.924L-253.099 751.936Z" fill="#D9D9D9"/>
<path d="M-265.105 689.663C-229.458 689.663 -191.369 684.989 -163.261 676.731C-147.486 672.097 -135.785 666.619 -128.474 660.454C-110.131 644.981 -121.023 626.043 -131.547 607.725C-143.4 587.09 -154.608 567.596 -125.906 553.614C-8.36218 496.337 161.362 537.538 311.884 585.398C425.746 621.599 506.187 639.137 559.671 639.137C574.37 639.137 587.033 637.812 597.798 635.185C655.33 621.134 652.142 571.238 648.461 513.457C645.931 473.798 643.06 428.852 660.175 389.847C679.782 345.164 722.628 315.164 791.165 298.13C909.986 268.606 1022.57 293.359 1131.45 317.303C1150.9 321.581 1171.02 326.003 1190.63 329.983C1258.81 343.805 1340.65 345.17 1396.29 344.998C1458.58 344.803 1516.98 341.218 1569.86 334.353L1570.09 334.325L1570.26 334.25C1635.85 306.549 1684.77 266.013 1697.94 228.437C1701.38 218.612 1702.18 208.822 1700.29 199.331L1698.27 199.411C1700.14 208.822 1699.34 218.544 1695.93 228.288C1682.83 265.635 1634.23 305.93 1569.06 333.482C1516.41 340.307 1458.29 343.868 1396.26 344.063C1340.82 344.241 1259.26 342.882 1191.45 329.129C1171.87 325.16 1151.76 320.738 1132.32 316.466C1022.98 292.418 909.923 267.556 790.179 297.31C721.085 314.481 677.898 344.688 658.176 389.658C641.023 428.766 643.895 473.769 646.425 513.474C650.093 570.951 653.256 620.583 596.824 634.365C573.055 640.169 540.064 639.418 495.966 632.065C448.213 624.105 388.378 608.591 313.035 584.635C246.775 563.565 168.446 540.641 89.9912 530.341C48.0693 524.841 9.51233 523.527 -24.6426 526.452C-63.5411 529.784 -98.1262 538.708 -127.411 552.977C-156.873 567.333 -145.538 587.061 -133.533 607.949C-123.11 626.095 -112.332 644.86 -130.295 660.013C-137.442 666.04 -148.916 671.408 -164.399 675.956C-200.439 686.549 -253.113 691.177 -295.567 687.49C-315.275 679.868 -333.188 670.468 -350.29 658.768C-363.864 649.489 -376.602 639.544 -388.936 629.926C-405.482 617.016 -422.597 603.665 -441.889 591.77L-443.521 592.315C-424.292 604.169 -407.202 617.498 -390.682 630.385C-378.335 640.014 -365.584 649.97 -351.973 659.273C-334.693 671.087 -316.603 680.573 -296.667 688.264L-296.465 688.344L-296.199 688.367C-286.282 689.239 -275.82 689.658 -265.131 689.658L-265.105 689.663Z" fill="#D9D9D9"/>
<path d="M-277.147 628.314C-249.102 628.314 -220.096 625.407 -196.504 619.855C-180.463 616.076 -168.079 611.281 -159.718 605.592C-138.858 591.42 -145.461 572.678 -151.862 554.555C-159.06 534.132 -165.865 514.844 -135.278 502.554C-10.0433 452.234 145.336 499.176 280.817 551.733C411.478 602.426 495.955 621.541 546.643 611.877C605.099 600.74 612.271 552.427 620.595 496.486C626.3 458.095 632.777 414.577 657.305 377.648C685.413 335.34 732.939 308.19 802.602 294.643C923.017 271.227 1026.33 299.742 1126.23 327.322C1144.43 332.346 1163.25 337.542 1181.68 342.268C1239.24 357.025 1309.12 361.917 1376.04 365.002C1433.15 367.635 1492.2 366.258 1546.77 361.022L1546.99 360.999L1547.17 360.942C1615.89 338.374 1671.54 301.858 1692.41 265.641C1697.74 256.401 1700.5 246.984 1700.62 237.653H1698.6C1698.47 246.898 1695.74 256.241 1690.45 265.405C1669.72 301.394 1614.44 337.68 1546.15 360.139C1491.83 365.346 1433.09 366.705 1376.25 364.084C1309.55 361.005 1239.92 356.136 1182.68 341.465C1164.28 336.745 1145.47 331.555 1127.28 326.531C1026.94 298.83 923.181 270.189 801.792 293.794C731.547 307.456 683.642 334.795 655.357 377.379C630.753 414.41 624.276 457.98 618.571 496.423C610.298 552.06 603.15 600.115 545.859 611.029C521.735 615.628 490.047 613.506 448.985 604.548C404.521 594.844 349.949 577.34 282.133 551.033C222.488 527.892 151.585 502.451 77.9498 489.191C38.6085 482.108 1.63269 479.212 -31.9403 480.594C-70.1937 482.166 -105.411 489.323 -136.631 501.866C-168.041 514.489 -161.16 534.017 -153.873 554.698C-147.548 572.649 -140.995 591.214 -161.412 605.081C-169.584 610.633 -181.716 615.33 -197.452 619.035C-234.858 627.844 -286.065 629.909 -324.938 624.191C-343.344 616.11 -359.663 606.073 -373.426 594.357C-384.494 584.934 -394.678 574.92 -404.532 565.233C-417.966 552.025 -431.856 538.37 -448.162 526.039L-449.895 526.51C-433.652 538.8 -419.788 552.433 -406.366 565.618C-396.499 575.316 -386.303 585.341 -375.209 594.787C-361.307 606.624 -344.812 616.764 -326.178 624.925L-326.014 624.999L-325.786 625.034C-310.897 627.242 -294.199 628.314 -277.16 628.314H-277.147Z" fill="#D9D9D9"/>
<path d="M475.803 589.866C482.76 589.866 489.313 589.436 495.486 588.581C554.853 580.357 572.398 533.633 592.714 479.533C606.654 442.404 622.467 400.325 654.42 365.461C691.029 325.527 743.236 301.227 814.025 291.162C936.109 273.808 1030.29 306.102 1121.36 337.33C1138.19 343.106 1155.61 349.076 1172.74 354.559C1224.52 371.122 1291.32 378.985 1355.81 385.018C1410.98 390.18 1469.04 391.109 1523.71 387.702L1523.89 387.691L1524.05 387.65C1595.78 370.147 1658.17 337.657 1686.88 302.856C1694.06 294.167 1698.79 285.129 1700.95 275.993L1698.94 275.895C1696.79 284.957 1692.1 293.921 1685 302.535C1656.47 337.112 1594.51 369.395 1523.27 386.807C1468.87 390.185 1411.13 389.256 1356.24 384.123C1291.98 378.107 1225.41 370.273 1173.93 353.813C1156.81 348.342 1139.42 342.371 1122.59 336.602C1031.11 305.231 936.514 272.793 813.443 290.291C742.047 300.436 689.435 324.914 652.573 365.111C620.531 400.067 604.706 442.203 590.74 479.378C570.538 533.18 553.082 579.652 494.917 587.704C470.414 591.099 440.029 587.606 402.016 577.042C360.84 565.595 311.518 546.101 251.241 517.443C198.212 492.231 134.722 464.272 65.9192 448.053C29.1584 439.387 -6.22351 434.908 -39.2146 434.747C-76.7976 434.558 -112.673 439.949 -145.816 450.76C-179.174 461.645 -176.745 480.979 -174.164 501.442C-171.925 519.198 -169.61 537.562 -192.507 550.156C-201.703 555.214 -214.48 559.24 -230.482 562.125C-269.229 569.105 -318.955 568.612 -354.299 560.904C-371.63 552.238 -385.848 541.828 -396.538 529.951C-405.152 520.385 -412.831 510.297 -420.256 500.535C-430.528 487.035 -441.141 473.081 -454.399 460.309L-456.233 460.699C-443.026 473.425 -432.426 487.362 -422.167 500.834C-414.728 510.606 -407.05 520.706 -398.41 530.295C-387.594 542.299 -373.211 552.829 -355.653 561.58L-355.526 561.649L-355.349 561.689C-319.512 569.535 -269.014 570.051 -229.723 562.974C-213.392 560.032 -200.337 555.914 -190.925 550.735C-167.536 537.866 -169.876 519.324 -172.127 501.384C-174.67 481.179 -177.074 462.087 -144.614 451.5C-11.6882 408.125 129.346 460.814 249.786 518.074C352.023 566.679 424.773 589.866 475.828 589.866H475.803Z" fill="#D9D9D9"/>
<path d="M432.136 565.801C436.311 565.801 440.372 565.629 444.318 565.279C504.583 559.974 532.501 514.839 564.822 462.574C587.01 426.712 612.145 386.062 651.525 353.274C696.634 315.714 753.521 294.259 825.436 287.681C949.317 276.348 1034.48 312.457 1116.84 347.378C1132.2 353.888 1148.07 360.621 1163.8 366.849C1212.51 386.148 1278 396.677 1335.57 405.034C1386.15 412.375 1444.79 419.756 1500.77 414.376C1535.72 411.015 1571.57 401.799 1604.43 387.713C1634.72 374.735 1661.31 358.258 1681.33 340.072C1690.34 331.899 1697.03 323.239 1701.26 314.332L1699.27 314.137C1695.08 322.969 1688.44 331.555 1679.52 339.659C1645.82 370.261 1581.06 405.722 1500.35 413.476C1444.85 418.809 1386.51 411.463 1336.19 404.156C1278.82 395.829 1213.56 385.339 1165.14 366.155C1149.44 359.938 1133.58 353.211 1118.23 346.707C1035.5 311.625 949.95 275.356 825.044 286.781C752.509 293.416 695.167 315.02 649.754 352.838C610.26 385.718 585.087 426.42 562.874 462.333C530.73 514.305 502.976 559.189 443.926 564.385C419.057 566.57 389.974 561.718 354.997 549.548C317.11 536.363 273.051 514.873 220.288 483.863C173.875 456.581 117.811 426.105 53.8397 406.926C19.6469 396.677 -14.1158 390.615 -46.5376 388.906C-83.4755 386.956 -119.983 390.581 -155.036 399.66C-190.342 408.807 -192.354 427.934 -194.491 448.191C-196.338 465.757 -198.261 483.926 -223.624 495.236C-233.82 499.784 -247.254 503.145 -263.547 505.221C-302.446 510.182 -354.69 509.763 -383.722 497.628C-403.216 489.484 -412.197 477.319 -419.724 465.557C-425.935 455.847 -431.147 445.673 -436.194 435.831C-443.253 422.05 -450.552 407.798 -460.722 394.596L-462.633 394.9C-452.5 408.056 -445.213 422.285 -438.167 436.044C-433.12 445.897 -427.896 456.082 -421.672 465.82C-414.069 477.709 -404.974 490.006 -385.101 498.31C-355.488 510.681 -302.433 511.145 -263.004 506.11C-246.369 503.988 -232.644 500.553 -222.207 495.896C-196.275 484.328 -194.34 465.981 -192.467 448.236C-190.355 428.244 -188.369 409.358 -154.037 400.463C-13.42 364.033 113.295 422.463 218.681 484.425C312.658 539.678 381.043 565.813 432.124 565.813L432.136 565.801Z" fill="#D9D9D9"/>
<path d="M387.81 542.069C389.606 542.069 391.377 542.035 393.135 541.966C454.298 539.58 492.589 496.033 536.915 445.61C567.338 411.01 601.809 371.793 648.614 341.075C702.225 305.89 763.792 287.28 836.845 284.183C962.662 278.849 1038.93 318.834 1112.68 357.501C1126.44 364.716 1140.66 372.171 1154.85 379.122C1198.33 400.423 1260.48 413.986 1315.32 425.026C1363.37 434.702 1417.57 437.718 1469.98 440.632L1477.4 441.045C1512.23 442.995 1549.28 436.996 1587.53 423.22C1626.86 409.06 1657.21 390.409 1675.75 377.258C1686.59 369.568 1695.26 361.286 1701.53 352.643L1699.61 352.356C1693.4 360.93 1684.8 369.143 1674.06 376.765C1651.27 392.933 1569.76 445.277 1477.67 440.127L1470.24 439.714C1417.97 436.806 1363.93 433.801 1316.15 424.183C1261.49 413.178 1199.57 399.66 1156.35 378.491C1142.18 371.552 1127.96 364.102 1114.22 356.893C1040.13 318.054 963.522 277.885 836.668 283.265C762.995 286.385 700.934 305.127 646.957 340.548C600.026 371.351 565.504 410.62 535.043 445.266C490.958 495.402 452.894 538.709 392.971 541.043C367.734 542.029 339.943 535.807 308.001 522.025C273.404 507.096 234.594 483.617 189.37 450.25C149.586 420.897 100.934 387.903 41.7831 365.765C10.1709 353.939 -21.9979 346.289 -53.8252 343.037C-90.1052 339.332 -127.245 341.179 -164.221 348.531C-201.463 355.935 -207.927 374.861 -214.77 394.894C-220.703 412.271 -226.851 430.245 -254.706 440.282C-265.864 444.302 -279.956 446.992 -296.578 448.288C-343.016 451.896 -389.846 446.281 -413.109 434.312C-431.742 424.728 -438.801 411.543 -442.874 401.128C-446.732 391.258 -449.528 380.975 -452.223 371.036C-456.031 356.99 -459.977 342.463 -467.01 328.842L-468.984 329.054C-461.976 342.63 -458.042 357.128 -454.234 371.15C-451.54 381.107 -448.744 391.396 -444.873 401.294C-440.749 411.83 -433.589 425.17 -414.627 434.925C-395.69 444.669 -361.51 450.29 -324.509 450.29C-315.198 450.29 -305.698 449.934 -296.224 449.194C-279.26 447.875 -264.852 445.122 -253.429 441.005C-224.941 430.744 -218.743 412.593 -212.747 395.037C-205.991 375.257 -199.603 356.572 -163.386 349.374C-15.053 319.884 97.3165 384.06 187.675 450.726C271.936 512.895 335.768 542.052 387.848 542.058L387.81 542.069Z" fill="#D9D9D9"/>
<path d="M339.992 516.382C402.116 516.382 450.527 473.947 506.541 424.843C545.516 390.685 589.677 351.961 644.236 323.606C706.638 291.168 773.354 277.129 848.166 280.69C980.117 286.97 1049.15 330.557 1115.91 372.705C1125.68 378.876 1135.79 385.253 1145.92 391.401C1184.5 414.835 1243.15 431.37 1295.09 445.031C1345.31 458.239 1403.78 463.911 1454.36 467.719C1490.44 470.438 1529.54 466.188 1570.58 455.096C1605.81 445.57 1640.27 431.519 1670.2 414.474C1682.91 407.236 1693.55 399.333 1701.82 390.983L1699.98 390.604C1691.77 398.886 1681.22 406.72 1668.62 413.9C1616.87 443.373 1533.49 472.749 1454.69 466.819C1404.3 463.022 1346.04 457.373 1296.1 444.239C1244.34 430.624 1185.91 414.153 1147.54 390.857C1137.42 384.714 1127.32 378.337 1117.56 372.177C1084.13 351.072 1049.55 329.244 1007.38 312.302C959.979 293.256 907.962 282.623 848.368 279.784C772.848 276.188 705.575 290.331 642.705 323.01C587.994 351.45 543.757 390.22 504.732 424.43C448.744 473.512 400.37 515.906 339.056 515.47C313.718 515.292 287.558 507.888 259.083 492.845C228.204 476.528 195.276 451.615 158.415 416.688C125.246 385.265 84.0201 349.753 29.7012 324.661C0.682251 311.253 -29.8927 302.025 -61.1381 297.23C-96.7477 291.765 -134.533 291.845 -173.432 297.465C-212.596 303.12 -223.5 321.846 -235.049 341.666C-245.068 358.86 -255.441 376.645 -285.801 385.397C-297.882 388.878 -312.632 390.908 -329.633 391.419C-375.768 392.812 -421.118 384.634 -442.534 371.059C-456.158 362.427 -463.862 351.204 -466.075 336.757C-467.619 326.697 -468.011 316.288 -468.391 306.223C-468.922 291.937 -469.478 277.163 -473.337 263.146L-475.348 263.261C-471.49 277.226 -470.946 291.977 -470.415 306.24C-470.035 316.317 -469.656 326.738 -468.1 336.82C-465.848 351.439 -458.03 362.812 -444.178 371.592C-433.16 378.572 -416.235 384.215 -395.211 387.914C-374.869 391.493 -352.137 393.019 -329.494 392.336C-312.151 391.814 -297.085 389.738 -284.701 386.171C-253.658 377.224 -243.196 359.267 -233.076 341.896C-221.666 322.327 -210.901 303.843 -172.799 298.337C-16.762 275.792 81.2877 345.715 156.606 417.083C193.556 452.091 226.573 477.067 257.565 493.447C286.445 508.708 313.098 516.21 339.043 516.393C339.359 516.393 339.688 516.393 340.005 516.393L339.992 516.382Z" fill="#D9D9D9"/>
<path d="M298.335 495.54C358.486 495.54 415.474 456.553 481.077 411.686C527.97 379.616 581.125 343.26 642.781 316.684C713.406 286.236 784.359 273.32 859.677 277.191C989.82 283.879 1048.4 331.825 1105.06 378.193C1115.41 386.664 1126.11 395.422 1136.99 403.68C1169.3 428.204 1222.34 447.657 1274.85 465.029C1326.35 482.068 1379.02 491.95 1431.39 494.405C1470.86 496.257 1513.43 493.212 1554.46 485.613C1594.92 478.122 1633.01 466.388 1664.61 451.678C1679.24 444.87 1691.84 437.34 1702.09 429.311L1700.33 428.852C1690.17 436.818 1677.67 444.279 1663.15 451.035C1598.98 480.91 1510.25 497.175 1431.59 493.493C1380.31 491.09 1326.52 480.99 1276.02 464.289C1223.69 446.975 1170.84 427.596 1138.71 403.21C1127.84 394.963 1117.15 386.211 1106.81 377.746C1049.89 331.176 991.047 283.024 859.867 276.28C783.916 272.374 712.444 285.376 641.351 316.018C579.531 342.67 526.313 379.065 479.356 411.176C411.401 457.654 352.705 497.8 290.998 494.416C265.016 492.994 239.804 484.035 213.922 467.036C185.89 448.621 157.592 421.161 127.422 383.085C100.882 349.592 67.0691 311.568 17.5825 283.517C-8.85583 268.531 -37.8242 257.715 -68.4878 251.378C-103.44 244.157 -141.845 242.465 -182.666 246.354C-223.741 250.265 -239.098 268.784 -255.353 288.381C-269.458 305.397 -284.056 322.992 -316.946 330.46C-329.912 333.402 -345.332 334.767 -362.738 334.503C-409.29 333.803 -452.173 323.308 -472.009 307.76C-484.33 298.102 -490.313 285.852 -489.326 272.345C-488.567 262.079 -486.569 251.515 -484.62 241.301C-481.863 226.797 -479.017 211.799 -479.712 197.416L-481.736 197.438C-481.041 211.776 -483.887 226.745 -486.632 241.226C-488.58 251.452 -490.579 262.028 -491.338 272.322C-492.337 286.006 -486.265 298.423 -473.754 308.23C-453.578 324.048 -410.024 334.727 -362.802 335.432C-345.028 335.696 -329.304 334.308 -316.035 331.291C-282.436 323.663 -267.699 305.896 -253.455 288.713C-237.402 269.357 -222.235 251.074 -182.249 247.26C-18.4824 231.654 65.2347 307.324 125.524 383.406C183.676 456.782 236.186 492.351 290.771 495.339C293.288 495.477 295.806 495.546 298.31 495.546L298.335 495.54Z" fill="#D9D9D9"/>
<path d="M1459.5 523.321C1529.4 523.321 1601.14 511.163 1659.03 488.864C1675.64 482.464 1690.22 475.318 1702.35 467.627L1700.71 467.094C1688.67 474.727 1674.21 481.816 1657.73 488.165C1586.01 515.791 1492.92 527.755 1408.69 520.167C1354.53 515.286 1301.73 502.898 1255.99 484.334C1206.93 464.427 1157.71 442.318 1129.92 415.563C1120.76 406.749 1111.87 397.435 1103.27 388.43C1054.98 337.892 1005.05 285.639 871.519 272.793C794.443 265.377 718.252 275.505 638.608 303.762C569.35 328.332 506.783 363.299 451.578 394.143C371.681 438.797 302.676 477.36 240.071 471.114C213.709 468.487 189.775 458.158 166.929 439.548C142.186 419.395 119.151 389.939 96.4944 349.506C83.4902 326.284 62.7822 291.982 33.2319 262.28C0.633057 229.504 -37.2916 207.756 -79.4791 197.633C-113.735 189.415 -151.609 188.629 -192.064 195.299C-230.697 201.665 -251.227 218.951 -271.062 235.669C-290.556 252.083 -310.708 269.059 -347.987 275.563C-361.801 277.971 -377.866 278.665 -395.753 277.627C-442.824 274.892 -483.303 262.194 -501.393 244.49C-512.449 233.673 -516.282 221.039 -512.487 207.957C-509.438 197.456 -505.023 186.714 -500.76 176.322C-494.726 161.628 -488.49 146.436 -486.01 131.702L-488.035 131.633C-490.501 146.315 -496.738 161.485 -502.759 176.155C-507.035 186.553 -511.449 197.312 -514.498 207.836C-518.356 221.09 -514.46 233.903 -503.24 244.88C-484.859 262.865 -443.772 275.763 -396.019 278.539C-377.803 279.6 -361.396 278.889 -347.266 276.423C-309.291 269.799 -288.962 252.674 -269.292 236.111C-249.621 219.547 -229.292 202.422 -191.38 196.171C-151.483 189.593 -114.165 190.361 -80.4279 198.454C-38.645 208.479 -1.02405 230.083 31.3851 262.664C60.8595 292.304 81.5422 326.554 94.5337 349.741C138.176 427.647 184.285 466.503 239.641 472.026C244.284 472.491 248.964 472.714 253.67 472.714C313.631 472.714 378.69 436.359 453.16 394.733C508.288 363.924 570.779 329.003 639.86 304.497C718.999 276.423 794.645 266.346 871.102 273.704C1003.61 286.454 1053.32 338.489 1101.41 388.809C1110.02 397.819 1118.93 407.139 1128.1 415.971C1156.04 442.88 1205.44 465.069 1254.65 485.039C1300.67 503.713 1353.8 516.175 1408.31 521.09C1425.11 522.604 1442.26 523.344 1459.51 523.344L1459.5 523.321Z" fill="#D9D9D9"/>
<path d="M1468.77 553.029C1486.52 553.029 1504.35 552.341 1521.97 550.953C1568.73 547.277 1614.2 538.669 1653.45 526.051C1672.11 520.058 1688.64 513.291 1702.62 505.938L1701.09 505.336C1687.23 512.631 1670.81 519.347 1652.29 525.294C1574.1 550.42 1474.47 558.478 1385.76 546.841C1329.41 539.449 1277.59 524.767 1235.91 504.378C1192.32 483.055 1144.58 457.293 1121.09 427.906C1113.63 418.569 1106.5 408.756 1099.61 399.259C1060.02 344.7 1019.08 288.283 883.119 269.289C804.904 258.363 724.02 265.624 635.825 291.489C559.128 313.983 487.213 347.51 423.761 377.092C331.91 419.917 252.595 456.903 189.079 447.795C162.325 443.958 139.694 432.264 119.871 412.036C98.417 390.14 80.6311 358.694 65.5018 315.904C56.8113 291.335 42.441 254.968 17.9761 222.989C-9.01892 187.706 -43.7683 163.607 -85.3234 151.357C-119.061 141.412 -158.086 138.997 -201.298 144.188C-242.55 149.143 -267.318 166.153 -291.277 182.602C-314.819 198.775 -339.17 215.499 -379.106 220.632C-393.717 222.513 -410.453 222.536 -428.845 220.712C-475.865 216.043 -514.967 200.891 -530.867 181.179C-540.443 169.308 -542.126 156.289 -535.725 143.522C-530.349 132.694 -523.467 121.683 -516.813 111.039C-507.566 96.2419 -497.99 80.9405 -492.386 65.9488L-494.385 65.7939C-499.976 80.7397 -509.527 96.0125 -518.761 110.786C-525.428 121.442 -532.322 132.465 -537.698 143.316C-544.188 156.254 -542.48 169.457 -532.765 181.489C-516.624 201.493 -476.966 216.869 -429.263 221.607C-410.541 223.465 -393.476 223.436 -378.537 221.515C-337.88 216.284 -313.326 199.417 -289.57 183.106C-265.826 166.796 -241.272 149.934 -200.767 145.071C-158.137 139.949 -119.668 142.324 -86.4241 152.125C-45.2484 164.261 -10.7646 188.205 16.0659 223.287C40.4803 255.197 54.8254 291.507 63.5033 316.042C92.6361 398.479 132.344 440.621 188.472 448.667C253.164 457.941 332.896 420.771 425.216 377.729C488.592 348.181 560.419 314.694 636.925 292.258C724.577 266.553 804.917 259.327 882.512 270.166C1017.47 289.023 1058.24 345.211 1097.67 399.545C1104.57 409.043 1111.7 418.867 1119.17 428.215C1142.78 457.751 1190.68 483.605 1234.41 504.998C1276.34 525.506 1328.47 540.28 1385.18 547.719C1412.03 551.24 1440.29 553.018 1468.76 553.018L1468.77 553.029Z" fill="#D9D9D9"/>
<path d="M1479.87 584.131C1538.75 584.131 1596.75 577.014 1647.88 563.238C1668.64 557.646 1687.15 551.257 1702.89 544.254L1701.47 543.601C1685.85 550.552 1667.47 556.895 1646.85 562.452C1504.28 600.86 1318.99 584.521 1215.83 524.439C1169.96 497.725 1134.15 468.625 1112.25 440.27C1110.64 436.439 1109.05 432.568 1107.44 428.662C1080.8 363.872 1050.6 290.44 894.669 265.813C817.365 249.812 737.759 252.656 651.41 274.524C576.004 293.623 507.517 323.652 441.295 352.689C347.09 393.993 265.739 429.666 193.355 419.997C162.275 415.844 134.849 403.588 109.512 382.54C81.9348 359.628 57.4192 326.852 34.5354 282.324C41.8344 239.024 26.0979 197.031 -9.76477 164.071C-29.9919 145.478 -56.2786 130.09 -87.9034 118.339C-122.602 105.441 -163.74 96.9527 -210.153 93.1159L-210.266 93.1045H-210.393C-256.464 94.3031 -286.204 112.076 -314.97 129.265C-341.674 145.226 -369.289 161.726 -410.224 165.752C-426.29 167.013 -443.696 166.371 -461.925 163.842C-499.482 158.634 -530.31 147.003 -548.729 131.1C-567.438 114.944 -571.081 96.4882 -558.95 79.1221C-551.246 68.0935 -541.961 56.9386 -532.967 46.1508C-520.456 31.1304 -507.502 15.5996 -498.736 0.229406L-500.697 0C-509.438 15.3243 -522.366 30.8322 -534.852 45.8296C-543.846 56.6289 -553.156 67.7895 -560.872 78.8469C-573.156 96.448 -569.474 115.156 -550.512 131.53C-531.828 147.651 -500.57 159.437 -462.506 164.719C-443.974 167.289 -426.239 167.942 -409.832 166.652C-368.125 162.551 -340.282 145.914 -313.351 129.821C-283.585 112.03 -255.465 95.2265 -210.393 94.0278C-23.2369 109.547 46.4517 199.773 32.4988 282.33V282.399L32.524 282.468C55.4585 327.11 80.0499 359.99 107.728 382.982C133.332 404.259 161.149 416.659 192.774 420.88C226.435 425.382 263.841 420.685 310.469 406.106C351.986 393.127 396.046 373.806 442.699 353.348C508.833 324.351 577.218 294.362 652.397 275.322C738.138 253.608 817.137 250.775 893.91 266.662C1048.82 291.122 1078.9 364.28 1105.44 428.829C1107.05 432.746 1108.66 436.634 1110.26 440.477L1110.3 440.546C1132.26 469.003 1168.2 498.207 1214.22 525.007C1264.33 554.188 1335.84 574.18 1415.56 581.292C1436.91 583.196 1458.44 584.137 1479.86 584.137L1479.87 584.131Z" fill="#D9D9D9"/>
</svg>
