<svg width="24" height="24" viewBox="0 0 24 24" fill="none" xmlns="http://www.w3.org/2000/svg">
<path fill-rule="evenodd" clip-rule="evenodd" d="M12 10C10.8954 10 10 10.8954 10 12C10 13.1046 10.8954 14 12 14C13.1046 14 14 13.1046 14 12C14 10.8954 13.1046 10 12 10ZM8 12C8 9.79086 9.79086 8 12 8C14.2091 8 16 9.79086 16 12C16 14.2091 14.2091 16 12 16C9.79086 16 8 14.2091 8 12Z" fill="#858585"/>
<path fill-rule="evenodd" clip-rule="evenodd" d="M8.72995 4.54104C8.72995 3.13766 9.86761 2 11.271 2H12.7296C14.133 2 15.2707 3.13766 15.2707 4.54104C15.2707 4.74442 15.4109 5.01577 15.7461 5.19782C15.8493 5.25384 15.951 5.31209 16.0513 5.37252C16.3856 5.57406 16.6994 5.56113 16.8837 5.45569C18.1075 4.75547 19.667 5.17332 20.3767 6.39162L21.0812 7.60076C21.7923 8.8214 21.3726 10.3877 20.1465 11.0892C19.9687 11.1909 19.8015 11.4496 19.8097 11.8346C19.8108 11.8896 19.8114 11.9448 19.8114 12C19.8114 12.0552 19.8108 12.1104 19.8097 12.1654C19.8015 12.5504 19.9687 12.8091 20.1464 12.9108C21.3726 13.6123 21.7922 15.1786 21.0811 16.3992L20.3767 17.6084C19.6669 18.8267 18.1074 19.2445 16.8837 18.5443C16.6994 18.4389 16.3856 18.4259 16.0513 18.6275C15.951 18.6879 15.8493 18.7462 15.7461 18.8022C15.4109 18.9842 15.2707 19.2556 15.2707 19.459C15.2707 20.8623 14.133 22 12.7296 22H11.271C9.86761 22 8.72995 20.8623 8.72995 19.459C8.72995 19.2556 8.58969 18.9842 8.25449 18.8022C8.15134 18.7462 8.04961 18.6879 7.94937 18.6275C7.61506 18.4259 7.30123 18.4389 7.11697 18.5443C5.89318 19.2445 4.33369 18.8267 3.62394 17.6084L2.9195 16.3992C2.2084 15.1786 2.62806 13.6123 3.85419 12.9108C4.03196 12.8091 4.1991 12.5504 4.19095 12.1654C4.18979 12.1104 4.18921 12.0553 4.18921 12C4.18921 11.9448 4.18979 11.8896 4.19095 11.8346C4.1991 11.4497 4.03195 11.191 3.85417 11.0892C2.62802 10.3877 2.20836 8.82141 2.91948 7.60077L3.6239 6.39163C4.33365 5.17333 5.89314 4.75548 7.11694 5.4557C7.30121 5.56113 7.61504 5.57407 7.94936 5.37253C8.0496 5.3121 8.15133 5.25384 8.25449 5.19782C8.58969 5.01577 8.72995 4.74442 8.72995 4.54104ZM11.271 4C10.9722 4 10.7299 4.24223 10.7299 4.54104C10.7299 5.64708 10.0245 6.51246 9.209 6.95535C9.13224 6.99703 9.05653 7.04039 8.98192 7.08537C8.18645 7.5649 7.08444 7.74134 6.12369 7.19163C5.85333 7.03694 5.50882 7.12925 5.35202 7.39839L4.6476 8.60754C4.49558 8.86848 4.58529 9.20332 4.84742 9.3533C5.80973 9.90391 6.21014 10.9487 6.19051 11.8769C6.18964 11.9178 6.18921 11.9589 6.18921 12C6.18921 12.0412 6.18964 12.0822 6.19051 12.1231C6.21014 13.0513 5.80974 14.0961 4.84744 14.6467C4.58533 14.7967 4.49562 15.1315 4.64763 15.3924L5.35207 16.6016C5.50886 16.8708 5.85337 16.9631 6.12372 16.8084C7.08446 16.2587 8.18646 16.4351 8.98192 16.9146C9.05654 16.9596 9.13224 17.003 9.209 17.0447C10.0245 17.4875 10.7299 18.3529 10.7299 19.459C10.7299 19.7578 10.9722 20 11.271 20H12.7296C13.0285 20 13.2707 19.7578 13.2707 19.459C13.2707 18.3529 13.9762 17.4875 14.7916 17.0447C14.8684 17.003 14.9441 16.9596 15.0187 16.9146C15.8142 16.4351 16.9162 16.2587 17.8769 16.8084C18.1473 16.9631 18.4918 16.8708 18.6486 16.6016L19.353 15.3924C19.505 15.1315 19.4153 14.7967 19.1532 14.6467C18.1909 14.0961 17.7905 13.0513 17.8101 12.1231C17.811 12.0822 17.8114 12.0412 17.8114 12C17.8114 11.9589 17.811 11.9178 17.8101 11.8769C17.7905 10.9487 18.1909 9.9039 19.1532 9.35329C19.4153 9.20331 19.5051 8.86848 19.353 8.60753L18.6486 7.39839C18.4918 7.12924 18.1473 7.03693 17.8769 7.19162C16.9162 7.74134 15.8142 7.5649 15.0187 7.08536C14.9441 7.04039 14.8684 6.99703 14.7916 6.95535C13.9762 6.51246 13.2707 5.64708 13.2707 4.54104C13.2707 4.24223 13.0285 4 12.7296 4H11.271Z" fill="#858585"/>
</svg>
